<mxfile host="app.diagrams.net" modified="2023-11-02T04:12:53.234Z" agent="Mozilla/5.0 (Windows NT 10.0; Win64; x64) AppleWebKit/537.36 (KHTML, like Gecko) Chrome/118.0.0.0 Safari/537.36" etag="8IeJweVgj_F4G5tg8Vvj" version="22.0.8" type="github">
  <diagram name="Page-1" id="K6n3lDhp87YlzvS6EINz">
    <mxGraphModel dx="857" dy="349" grid="1" gridSize="10" guides="1" tooltips="1" connect="1" arrows="1" fold="1" page="1" pageScale="1" pageWidth="850" pageHeight="1100" math="0" shadow="0">
      <root>
        <mxCell id="0" />
        <mxCell id="1" parent="0" />
        <mxCell id="pWe8uqLpT7956_WyL392-7" value="" style="edgeStyle=orthogonalEdgeStyle;rounded=0;orthogonalLoop=1;jettySize=auto;html=1;" edge="1" parent="1" source="pWe8uqLpT7956_WyL392-1" target="pWe8uqLpT7956_WyL392-2">
          <mxGeometry relative="1" as="geometry" />
        </mxCell>
        <mxCell id="pWe8uqLpT7956_WyL392-1" value="star" style="strokeWidth=2;html=1;shape=mxgraph.flowchart.terminator;whiteSpace=wrap;" vertex="1" parent="1">
          <mxGeometry x="410" y="10" width="100" height="60" as="geometry" />
        </mxCell>
        <mxCell id="pWe8uqLpT7956_WyL392-8" value="" style="edgeStyle=orthogonalEdgeStyle;rounded=0;orthogonalLoop=1;jettySize=auto;html=1;" edge="1" parent="1" source="pWe8uqLpT7956_WyL392-2" target="pWe8uqLpT7956_WyL392-3">
          <mxGeometry relative="1" as="geometry" />
        </mxCell>
        <mxCell id="pWe8uqLpT7956_WyL392-2" value="bil" style="shape=parallelogram;perimeter=parallelogramPerimeter;whiteSpace=wrap;html=1;fixedSize=1;" vertex="1" parent="1">
          <mxGeometry x="400" y="110" width="120" height="60" as="geometry" />
        </mxCell>
        <mxCell id="pWe8uqLpT7956_WyL392-9" value="" style="edgeStyle=orthogonalEdgeStyle;rounded=0;orthogonalLoop=1;jettySize=auto;html=1;" edge="1" parent="1" source="pWe8uqLpT7956_WyL392-3" target="pWe8uqLpT7956_WyL392-4">
          <mxGeometry relative="1" as="geometry" />
        </mxCell>
        <mxCell id="pWe8uqLpT7956_WyL392-14" value="" style="edgeStyle=orthogonalEdgeStyle;rounded=0;orthogonalLoop=1;jettySize=auto;html=1;entryX=0;entryY=0.5;entryDx=0;entryDy=0;" edge="1" parent="1" source="pWe8uqLpT7956_WyL392-3" target="pWe8uqLpT7956_WyL392-6">
          <mxGeometry relative="1" as="geometry">
            <mxPoint x="580" y="260" as="targetPoint" />
          </mxGeometry>
        </mxCell>
        <mxCell id="pWe8uqLpT7956_WyL392-3" value="bil bil 2&lt;br&gt;=0" style="rhombus;whiteSpace=wrap;html=1;" vertex="1" parent="1">
          <mxGeometry x="420" y="220" width="80" height="80" as="geometry" />
        </mxCell>
        <mxCell id="pWe8uqLpT7956_WyL392-10" value="" style="edgeStyle=orthogonalEdgeStyle;rounded=0;orthogonalLoop=1;jettySize=auto;html=1;" edge="1" parent="1" source="pWe8uqLpT7956_WyL392-4" target="pWe8uqLpT7956_WyL392-5">
          <mxGeometry relative="1" as="geometry" />
        </mxCell>
        <mxCell id="pWe8uqLpT7956_WyL392-17" value="" style="edgeStyle=orthogonalEdgeStyle;rounded=0;orthogonalLoop=1;jettySize=auto;html=1;" edge="1" parent="1" source="pWe8uqLpT7956_WyL392-4" target="pWe8uqLpT7956_WyL392-5">
          <mxGeometry relative="1" as="geometry" />
        </mxCell>
        <mxCell id="pWe8uqLpT7956_WyL392-4" value="bil= bil ganjil&amp;nbsp;" style="shape=parallelogram;perimeter=parallelogramPerimeter;whiteSpace=wrap;html=1;fixedSize=1;" vertex="1" parent="1">
          <mxGeometry x="400" y="341" width="120" height="60" as="geometry" />
        </mxCell>
        <mxCell id="pWe8uqLpT7956_WyL392-5" value="end" style="strokeWidth=2;html=1;shape=mxgraph.flowchart.terminator;whiteSpace=wrap;" vertex="1" parent="1">
          <mxGeometry x="410" y="450" width="100" height="60" as="geometry" />
        </mxCell>
        <mxCell id="pWe8uqLpT7956_WyL392-16" value="" style="edgeStyle=orthogonalEdgeStyle;rounded=0;orthogonalLoop=1;jettySize=auto;html=1;" edge="1" parent="1" source="pWe8uqLpT7956_WyL392-6">
          <mxGeometry relative="1" as="geometry">
            <mxPoint x="460" y="420" as="targetPoint" />
            <Array as="points">
              <mxPoint x="725" y="420" />
              <mxPoint x="461" y="420" />
            </Array>
          </mxGeometry>
        </mxCell>
        <mxCell id="pWe8uqLpT7956_WyL392-6" value="bil = bil genap" style="shape=parallelogram;perimeter=parallelogramPerimeter;whiteSpace=wrap;html=1;fixedSize=1;" vertex="1" parent="1">
          <mxGeometry x="630" y="231" width="190" height="60" as="geometry" />
        </mxCell>
      </root>
    </mxGraphModel>
  </diagram>
</mxfile>
